<svg xmlns="http://www.w3.org/2000/svg" xmlns:xlink="http://www.w3.org/1999/xlink" viewBox="0 0 1929 1311.23"><defs><style>.cls-1{isolation:isolate;}.cls-2{fill:#243a4e;}.cls-3{mix-blend-mode:overlay;fill:url(#Dégradé_sans_nom);}.cls-4{fill:#fbd56c;}.cls-5{fill:#fff;}.cls-6,.cls-7{fill:#f6965c;}.cls-7,.cls-8{opacity:0.5;}</style><linearGradient id="Dégradé_sans_nom" x1="1896.21" y1="1663.25" x2="754.23" y2="190.62" gradientUnits="userSpaceOnUse"><stop offset="0" stop-color="#fff"/><stop offset="1"/></linearGradient></defs><title>python-react</title><g class="cls-1"><g id="background"><path class="cls-2" d="M0,357.62v596a43.38,43.38,0,0,0,29.38,41.06l921.11,314.24a43.51,43.51,0,0,0,28,0l921.11-314.24A43.38,43.38,0,0,0,1929,953.61v-596a43.38,43.38,0,0,0-29.38-41.06L978.51,2.32a43.51,43.51,0,0,0-28,0L29.38,316.56A43.38,43.38,0,0,0,0,357.62Z"/><path class="cls-3" d="M428,1131.65l522.52,178.26a43.51,43.51,0,0,0,28,0l921.11-314.24A43.38,43.38,0,0,0,1929,954.61v-596a43.38,43.38,0,0,0-29.38-41.06L1402.33,147.91C1116.48,395.34,772.85,820.92,428,1131.65Z"/></g><g id="python"><path id="body" class="cls-4" d="M1274.18,180.38c-134.88-4.09-210.5-14.31-459.83,157.36-88.88,61.2-282,204.37-335.16,155.32s-110.36-36.79-159.41-24.52S90.89,566.63,90.89,566.63C78.63,664.73,189,668.82,426.05,668.82S863.4,550.28,961.5,513.5c89-33.36,90.53-46.55,242.44-70.06-38,13.12-83.26,43.05-132.08,94.58-42.12,44.46-88.24,137.13-119.23,229a45.78,45.78,0,0,0-15.7,5.44C905.93,790.28,899,846,915,915.91c-68.61,21.18-113.28,55-113.28,90.78s44.89,69.82,113.72,90.89c-15.88,70.15-8.82,126,22.28,143.83a44.8,44.8,0,0,0,16.14,5.52,628.17,628.17,0,0,1,1.67,63.36,43.48,43.48,0,0,0,23-1.38l258.37-88.15q-2.28-6.91-4.49-13.94c8.42-26.86,7.46-65.28-2.62-109.35,68.39-21.07,113.06-55,113.06-90.78s-44.89-69.82-113.72-90.89c15.89-70.15,8.83-126-22.28-143.83a44.78,44.78,0,0,0-15.4-5.41c20.83-65.16,54.07-122.44,99.1-148.83,118.54-69.49,188-130.8,190.07-243.2C1481.42,329.57,1409.07,184.46,1274.18,180.38Z"/><g id="pattern"><path class="cls-5" d="M1274.18,180.38c-134.88-4.09-210.5-14.31-459.83,157.36-88.88,61.2-282,204.37-335.16,155.32-20.51-18.93-41.63-28.72-62.65-32.91L412,465.69c-11.5,42.5,87,82,154,53S692.78,427,751.5,462.19c30.77,18.46,56.89,52.38,30.16,128.91,17.29-7,33.86-13.94,49.64-20.79.71-1.34,1.45-2.72,2.2-4.12,48-90-19-119-7-179s84-117,177-136,137-22,167,34,22,69,12,95c-7.31,19-45.62,58.85-65.69,78.91,21.51-4.69,48-9.53,82.32-14.91,12.07-20.23,26.19-43.78,31.37-52,29-46,26-78,14-117s-17-91,51-77,197,116,146,189-119,72-162,50c-69-12-79.5,7.5-79.5,7.5s88.45,53.5,125.5,53.5c60.48,0,109.71-23.77,143.46-54.26,7.21-21,11.17-43.86,11.64-69.4C1481.42,329.57,1409.07,184.46,1274.18,180.38Z"/></g><g id="eye"><ellipse class="cls-6" cx="311" cy="552.69" rx="37" ry="43"/><path class="cls-5" d="M294,555.69a33,33,0,0,0,37.68,32.66c9.84-7.73,16.32-20.82,16.32-35.66a47.22,47.22,0,0,0-8.63-27.6A33,33,0,0,0,294,555.69Z"/></g><path id="shadow" class="cls-7" d="M1203.94,443.44c-1.14.4-2.29.81-3.45,1.24l-1.18.44L1197,446l-1.42.57-2.12.85-1.52.64-2,.87-1.6.71q-1,.44-2,.9l-1.65.76-2,.94-1.69.82-2,1-1.71.87-2,1-1.74.92-2,1.08-1.76,1-2,1.14-1.77,1-2.08,1.21-1.76,1-2.21,1.34-1.66,1-3.79,2.37-1.82,1.18-2.09,1.36-2,1.32-2,1.31-2,1.41-1.92,1.33-2.11,1.49-1.89,1.35c-.72.51-1.43,1-2.15,1.56l-1.88,1.38-2.18,1.63-1.87,1.42-2.22,1.7-1.85,1.44-2.27,1.78-1.83,1.47L1120,493l-1.81,1.48-2.36,2-1.72,1.45c-.83.7-1.65,1.39-2.47,2.1l-1.55,1.34-2.66,2.31-.8.71c-2.41,2.13-4.84,4.3-7.27,6.54l-.15.14c-1,.87-1.91,1.77-2.86,2.66l-1.42,1.32-2.66,2.52-1.63,1.56c-.86.83-1.73,1.67-2.59,2.52l-1.73,1.69c-.85.83-1.7,1.68-2.55,2.53l-1.17,1.16c-17.29,32.6-51.94,113.53-60.11,250.22a290,290,0,0,0,.57,41.66C1015.22,911.8,1097.16,1107,1162.8,1246l74.08-25.28q-2.28-6.91-4.49-13.94c8.42-26.86,7.46-65.28-2.62-109.35,68.39-21.07,113.06-55,113.06-90.78s-44.89-69.82-113.72-90.89c15.89-70.15,8.83-126-22.28-143.83a44.78,44.78,0,0,0-15.4-5.41,413.35,413.35,0,0,1,27.91-67.38l-.44,0c16.26-30.29,36.14-55.91,59.22-73.14l.18-.13c1.22-.91,2.46-1.8,3.7-2.67l.33-.22c1.21-.84,2.44-1.66,3.67-2.45l.78-.5c1.25-.78,2.49-1.56,3.75-2.29l5.14-3,1.64-1,3.45-2.05,1.92-1.15,3.13-1.89,2-1.18,3.11-1.9,1.87-1.14c1.14-.69,2.27-1.39,3.4-2.09l1.49-.92c1.58-1,3.15-1.95,4.7-2.93l1.47-.92,3.24-2,2-1.25,2.69-1.72,2.08-1.34,2.53-1.65,2.09-1.37,2.5-1.65,2-1.33,2.78-1.87,2.72-1.84,3-2.08,2.07-1.43,2.21-1.54,2.16-1.52,2-1.44,2.21-1.57,1.91-1.38,2.23-1.62,1.79-1.32,2.27-1.68,1.22-.91c1.61-1.21,3.21-2.43,4.79-3.64l1.5-1.16,2.29-1.78c.51-.4,1-.8,1.52-1.21l2.26-1.8c.5-.39,1-.79,1.47-1.18l2.26-1.84,1.35-1.11,2.33-1.94.92-.78q4.2-3.54,8.21-7.13l1-.85c.77-.69,1.53-1.39,2.28-2.08l1.07-1,2.22-2.07,1-1c.76-.71,1.51-1.43,2.25-2.15l.77-.75q4.17-4.05,8.1-8.17v0c.78-.81,1.54-1.63,2.3-2.45l.67-.71,2.14-2.34.73-.82c.7-.78,1.4-1.57,2.09-2.36l.62-.72c.73-.84,1.46-1.68,2.17-2.52l.14-.17c2.47-2.93,4.86-5.88,7.15-8.88l.18-.22c.68-.89,1.34-1.78,2-2.67l.47-.64,1.9-2.61.47-.66q1-1.35,1.89-2.7l.27-.39q4.19-6.1,7.91-12.42c.07-.12.14-.23.2-.35.57-1,1.12-1.93,1.67-2.89l.33-.6c.54-1,1.07-1.92,1.59-2.89l.27-.51q4.35-8.11,7.93-16.63l.2-.45c.43-1,.86-2.09,1.27-3.14.08-.18.15-.37.23-.56.42-1.06.83-2.13,1.23-3.2l.12-.32q2.63-7.05,4.74-14.41l.06-.18c.32-1.13.63-2.27.94-3.41,0-.2.11-.4.16-.59.29-1.12.58-2.24.86-3.36,0-.19.09-.38.14-.57.28-1.18.56-2.35.83-3.54-21.34-27.56-46.11-51.44-74.53-70.33-86.66-57.61-246.5-39.5-348.5,16.5s-281,161-498,245C377.57,682,180,661,93.73,604.86h0c.32.93.66,1.84,1,2.75l.06.15a57.57,57.57,0,0,0,9,15.06l.07.08c.61.74,1.24,1.46,1.9,2.18l.09.1a71.51,71.51,0,0,0,14.38,11.89l.19.12c.9.57,1.81,1.13,2.75,1.68l.11.07a115.26,115.26,0,0,0,16.18,7.73l.19.08c1.12.44,2.26.87,3.43,1.29l.36.13c1.18.43,2.36.84,3.58,1.25l.1,0q9.48,3.18,20.57,5.68l.56.13c1.35.3,2.72.6,4.11.89l.62.13c1.42.3,2.87.59,4.33.87h.05q9.34,1.8,19.7,3.25l.68.09c1.52.22,3.07.42,4.63.62l1.06.14,4.67.57,1,.11q10.67,1.24,22.28,2.2l.55.05,5.11.4,1.54.12,4.95.35,1.75.12,5.05.32,1.57.1q11.76.71,24.39,1.22l2.1.09,5.1.19,2.6.1,5,.17,2.79.08c1.69.06,3.38.11,5.08.15l2.72.08q8.88.24,18.15.41l3.05.06,5,.08,3.72.06,4.81.07,4.09.06,4.68.05,4.42,0,4.56,0,5.17.05,3.94,0,8.93.06,4,0,5.63,0,4.33,0,5.53,0h34.44c237.07,0,437.35-118.54,535.45-155.32C1050.46,480.14,1052,467,1203.94,443.44Z"/></g><g id="react"><g class="cls-8"><path class="cls-6" d="M1298.72,1005.18c0-29.37-36.79-57.21-93.19-74.48,13-57.48,7.23-103.22-18.26-117.86a39.54,39.54,0,0,0-20.24-5.06v20.15a21,21,0,0,1,10.3,2.35c12.29,7.05,17.62,33.9,13.47,68.43-1,8.49-2.62,17.44-4.61,26.57a438,438,0,0,0-57.4-9.85,440.52,440.52,0,0,0-37.6-45.2c29.47-27.38,57.13-42.39,75.93-42.39V807.69h0c-24.86,0-57.4,17.71-90.3,48.44-32.9-30.55-65.44-48.08-90.3-48.08V828.2c18.71,0,46.46,14.92,75.93,42.12a426.6,426.6,0,0,0-37.33,45.11,422.15,422.15,0,0,0-57.49,9.94c-2.08-9-3.61-17.81-4.7-26.21-4.25-34.53,1-61.38,13.2-68.52,2.71-1.62,6.24-2.35,10.39-2.35V808.14h0a40.21,40.21,0,0,0-20.42,5.06c-25.4,14.64-31.1,60.29-18,117.59-56.22,17.36-92.83,45.11-92.83,74.39s36.79,57.22,93.19,74.48c-13,57.49-7.23,103.22,18.26,117.86a39.66,39.66,0,0,0,20.34,5.07c24.85,0,57.39-17.72,90.29-48.45,32.9,30.55,65.44,48.08,90.3,48.08a40.28,40.28,0,0,0,20.43-5.06c25.39-14.64,31.09-60.29,18-117.59C1262.11,1062.31,1298.72,1034.47,1298.72,1005.18ZM1181,944.89c-3.35,11.66-7.51,23.68-12.21,35.71-3.7-7.23-7.59-14.47-11.84-21.7s-8.58-14.28-13-21.15C1156.81,939.65,1169.19,942,1181,944.89Zm-41.4,96.27c-7.05,12.2-14.28,23.77-21.79,34.52-13.46,1.18-27.11,1.81-40.85,1.81s-27.3-.63-40.67-1.72c-7.51-10.75-14.83-22.23-21.88-34.34-6.87-11.84-13.1-23.87-18.8-36,5.61-12.11,11.93-24.22,18.71-36.06,7-12.2,14.28-23.77,21.79-34.53,13.46-1.17,27.11-1.81,40.85-1.81s27.3.64,40.67,1.72q11.26,16.14,21.88,34.35c6.87,11.84,13.1,23.86,18.8,36C1152.65,1017.2,1146.42,1029.31,1139.64,1041.16Zm29.19-11.76c4.88,12.12,9,24.23,12.48,36-11.84,2.89-24.32,5.33-37.24,7.23,4.43-7,8.86-14.1,13-21.42S1165.13,1036.64,1168.83,1029.4Zm-91.65,96.45a372.51,372.51,0,0,1-25.13-28.93c8.14.37,16.45.64,24.86.64s16.9-.18,25.13-.64A352.78,352.78,0,0,1,1077.18,1125.85Zm-67.25-53.24c-12.83-1.9-25.21-4.25-37.06-7.14,3.35-11.66,7.51-23.68,12.21-35.7,3.7,7.23,7.59,14.46,11.84,21.69S1005.5,1065.74,1009.93,1072.61Zm66.8-188.1a374.66,374.66,0,0,1,25.13,28.93c-8.14-.36-16.45-.63-24.86-.63s-16.9.18-25.13.63A352.78,352.78,0,0,1,1076.73,884.51Zm-66.89,53.24c-4.43,7-8.86,14.1-13,21.42s-8.05,14.47-11.75,21.7c-4.88-12.11-9-24.23-12.48-36C984.44,942.09,996.92,939.65,1009.84,937.75ZM928,1050.92c-32-13.65-52.69-31.55-52.69-45.74S896.05,973,928,959.45c7.78-3.35,16.27-6.33,25-9.13a433.43,433.43,0,0,0,20.34,55,426.91,426.91,0,0,0-20.07,54.78C944.4,1057.33,935.91,1054.26,928,1050.92Zm48.63,129.16c-12.29-7-17.62-33.9-13.47-68.42,1-8.5,2.62-17.45,4.61-26.58a438,438,0,0,0,57.4,9.86,440.37,440.37,0,0,0,37.6,45.19c-29.47,27.39-57.13,42.39-75.93,42.39A21.53,21.53,0,0,1,976.67,1180.08Zm214.4-68.88c4.25,34.53-1,61.38-13.2,68.52-2.71,1.63-6.23,2.35-10.39,2.35-18.71,0-46.46-14.92-75.93-42.12a425.59,425.59,0,0,0,37.33-45.11,420.61,420.61,0,0,0,57.49-9.94A254.55,254.55,0,0,1,1191.07,1111.2Zm34.8-60.28c-7.78,3.34-16.27,6.32-25,9.13a433,433,0,0,0-20.34-55,427.34,427.34,0,0,0,20.07-54.77c9,2.8,17.44,5.87,25.4,9.22,32,13.64,52.69,31.54,52.69,45.73S1257.86,1037.36,1225.87,1050.92Z"/><circle class="cls-6" cx="1076.91" cy="1005.18" r="41.31"/></g></g></g></svg>